<svg width="44" height="44" viewBox="0 0 44 44" fill="none" xmlns="http://www.w3.org/2000/svg">
<path d="M22 0C9.85 0 0 9.85 0 22C0 34.15 9.85 44 22 44C34.15 44 44 34.15 44 22C44 9.85 34.15 0 22 0ZM22 4C31.941 4 40 12.059 40 22C40 31.941 31.941 40 22 40C12.059 40 4 31.941 4 22C4 12.059 12.059 4 22 4ZM22 12C20.895 12 20 12.896 20 14V20H14C12.896 20 12 20.895 12 22C12 23.105 12.896 24 14 24H20V30C20 31.104 20.895 32 22 32C23.105 32 24 31.104 24 30V24H30C31.104 24 32 23.105 32 22C32 20.895 31.104 20 30 20H24V14C24 12.896 23.105 12 22 12Z" fill="white"/>
</svg>
