<svg width="11" height="12" viewBox="0 0 11 12" fill="none" xmlns="http://www.w3.org/2000/svg">
  <path d="M4.5625 0.640625C3.91633 0.640625 3.39062 1.16633 3.39062 1.8125V2.51562H1.04688C0.788125 2.51562 0.578125 2.72563 0.578125 2.98438C0.578125 3.24312 0.788125 3.45312 1.04688 3.45312H1.54126L1.93585 10.5622C1.97757 11.307 2.5938 11.8906 3.33981 11.8906H7.66019C8.40597 11.8906 9.02243 11.307 9.06415 10.5622L9.45874 3.45312H9.95312C10.2119 3.45312 10.4219 3.24312 10.4219 2.98438C10.4219 2.72563 10.2119 2.51562 9.95312 2.51562H7.60938V1.8125C7.60938 1.16633 7.08367 0.640625 6.4375 0.640625H4.5625ZM4.5625 1.57812H6.4375C6.56687 1.57812 6.67188 1.68336 6.67188 1.8125V2.51562H4.32812V1.8125C4.32812 1.68336 4.43313 1.57812 4.5625 1.57812ZM2.47968 3.45312H8.52032L8.12802 10.51C8.11419 10.7584 7.90886 10.9531 7.66019 10.9531H3.33981C3.09138 10.9531 2.88581 10.7587 2.87198 10.5105L2.47968 3.45312ZM5.5 4.44922C5.27336 4.44922 5.08984 4.63297 5.08984 4.85938V9.54688C5.08984 9.77328 5.27336 9.95703 5.5 9.95703C5.72664 9.95703 5.91016 9.77328 5.91016 9.54688V4.85938C5.91016 4.63297 5.72664 4.44922 5.5 4.44922ZM3.7756 4.44968C3.54943 4.45765 3.37236 4.64716 3.3801 4.87357L3.54352 9.58121C3.55125 9.80269 3.73337 9.97717 3.95322 9.97717C3.95814 9.97717 3.96294 9.97717 3.96786 9.97717C4.19404 9.9692 4.37111 9.77923 4.36337 9.55283L4.19995 4.84518C4.19198 4.61901 4.00154 4.44429 3.7756 4.44968ZM7.22394 4.44968C6.9973 4.44335 6.80802 4.61901 6.80005 4.84518L6.63663 9.55283C6.62866 9.77923 6.80573 9.9692 7.03214 9.97717C7.03706 9.97741 7.04186 9.97717 7.04678 9.97717C7.26663 9.97717 7.44875 9.80269 7.45648 9.58121L7.6199 4.87357C7.62787 4.64716 7.45034 4.45765 7.22394 4.44968Z" fill="white"/>
</svg>
