<svg width="52" height="59" viewBox="0 0 52 59" fill="none" xmlns="http://www.w3.org/2000/svg">
<path d="M49.9445 7.36221L26 54.9059L2.05547 7.36221L6.11066 5.61181C18.8118 0.129395 33.1882 0.129399 45.8894 5.61181L49.9445 7.36221Z" stroke="#FF8A00" stroke-width="3"/>
<path d="M18.1999 17.6515C18.1999 19.8209 16.4538 21.5795 14.2999 21.5795C12.146 21.5795 10.3999 19.8209 10.3999 17.6515C10.3999 15.4821 12.146 13.7235 14.2999 13.7235C16.4538 13.7235 18.1999 15.4821 18.1999 17.6515Z" fill="#FF8A00"/>
<path d="M41.5999 17.6515C41.5999 19.8209 39.8538 21.5795 37.6999 21.5795C35.546 21.5795 33.7999 19.8209 33.7999 17.6515C33.7999 15.4821 35.546 13.7235 37.6999 13.7235C39.8538 13.7235 41.5999 15.4821 41.5999 17.6515Z" fill="#FF8A00"/>
<path d="M27.2999 37.2914C29.4538 37.2914 31.1999 35.5328 31.1999 33.3634C31.1999 31.1941 29.4538 29.4355 27.2999 29.4355C25.146 29.4355 23.3999 31.1941 23.3999 33.3634C23.3999 35.5328 25.146 37.2914 27.2999 37.2914Z" fill="#FF8A00"/>
</svg>
