<svg width="40" height="46" viewBox="0 0 40 46" fill="none" xmlns="http://www.w3.org/2000/svg">
<path d="M20 0C8.491 0 1 6.577 1 18V23C1 23 0 24.853 0 27C0 29.875 2.338 32.181 4 33C5.896 40.908 15 46 20 46C25 46 34.104 40.908 36 33C37.662 32.181 40 29.5215 40 26.6465C40 24.4995 39 23 39 23V18C39 4.514 29.3379 3.75586 29.3379 3.75586C29.3379 3.75586 26.481 0 20 0ZM20 4C26.061 4 27.0156 7.66406 27.0156 7.66406C27.0156 7.66406 35 8.226 35 18V22H34.6465C33.7275 17.963 31.1877 12.9415 26.4688 11.6035C26.4688 11.6035 21.8772 18.527 7.6582 18L5.6582 22H5V18C5 9.103 10.467 4 20 4ZM27.4102 16.5664C28.9262 17.9244 31.4716 22.759 31.5156 26H35.9375C35.9741 26.2011 36 26.4125 36 26.6465C36 28.8525 32.5488 30.2422 32.5488 30.2422C32.5488 36.8652 23.417 42 20 42C16.583 42 7.45117 36.4702 7.45117 30.2422C7.45117 30.2422 4 29.248 4 27C4 26.6308 4.04428 26.3042 4.10352 26H8.13281L10.1367 21.9902C18.6477 21.8582 23.6072 20.3224 27.4102 16.5664Z" fill="#FF8A00"/>
</svg>
