<svg width="360" height="260" viewBox="0 0 360 260" fill="none" xmlns="http://www.w3.org/2000/svg">
<path d="M120.435 152V106.56H137.907C142.942 106.56 147.145 107.584 150.515 109.632C153.929 111.637 156.489 114.368 158.195 117.824C159.945 121.237 160.819 125.035 160.819 129.216C160.819 133.824 159.859 137.835 157.939 141.248C156.062 144.661 153.395 147.307 149.939 149.184C146.526 151.061 142.515 152 137.907 152H120.435ZM148.147 129.216C148.147 126.869 147.742 124.821 146.931 123.072C146.121 121.28 144.947 119.893 143.411 118.912C141.875 117.931 140.041 117.44 137.907 117.44H132.915V141.12H137.907C140.083 141.12 141.918 140.608 143.411 139.584C144.947 138.56 146.121 137.152 146.931 135.36C147.742 133.525 148.147 131.477 148.147 129.216ZM166.248 152V106.56H178.728V141.12H199.336V152H166.248ZM200.627 128.896C200.627 126.123 201.139 123.413 202.163 120.768C203.229 118.08 204.765 115.648 206.771 113.472C208.776 111.296 211.208 109.568 214.067 108.288C216.968 106.965 220.232 106.304 223.859 106.304C228.211 106.304 232.008 107.221 235.251 109.056C238.493 110.848 240.904 113.237 242.483 116.224L232.947 123.008C232.392 121.515 231.581 120.363 230.515 119.552C229.491 118.741 228.36 118.187 227.123 117.888C225.928 117.547 224.755 117.376 223.603 117.376C221.811 117.376 220.253 117.739 218.931 118.464C217.651 119.147 216.584 120.064 215.731 121.216C214.92 122.368 214.301 123.648 213.875 125.056C213.491 126.464 213.299 127.872 213.299 129.28C213.299 130.859 213.533 132.373 214.003 133.824C214.472 135.275 215.155 136.576 216.051 137.728C216.947 138.837 218.035 139.712 219.315 140.352C220.637 140.992 222.109 141.312 223.731 141.312C224.883 141.312 226.056 141.141 227.251 140.8C228.445 140.416 229.533 139.819 230.515 139.008C231.496 138.197 232.243 137.109 232.755 135.744L242.931 141.824C242.035 144.043 240.541 145.941 238.451 147.52C236.36 149.099 233.992 150.315 231.347 151.168C228.701 151.979 226.077 152.384 223.475 152.384C220.104 152.384 217.011 151.723 214.195 150.4C211.421 149.035 209.011 147.243 206.963 145.024C204.957 142.763 203.4 140.245 202.291 137.472C201.181 134.656 200.627 131.797 200.627 128.896Z" fill="#FF8A00"/>
<path d="M310 130C310 201.797 251.797 260 180 260C108.203 260 50 201.797 50 130C50 58.203 108.203 0 180 0C251.797 0 310 58.203 310 130ZM64.5737 130C64.5737 193.748 116.252 245.426 180 245.426C243.748 245.426 295.426 193.748 295.426 130C295.426 66.2518 243.748 14.5737 180 14.5737C116.252 14.5737 64.5737 66.2518 64.5737 130Z" fill="#FF8A00"/>
</svg>
