<svg width="45" height="50" viewBox="0 0 45 50" fill="none" xmlns="http://www.w3.org/2000/svg">
<path d="M2.13006 1.63L21.0001 9V49L2.25006 40.87C1.87821 40.7196 1.56018 40.4609 1.33727 40.1274C1.11436 39.7939 0.99687 39.4011 1.00006 39V3C1.00006 2.46957 1.21078 1.96086 1.58585 1.58579C1.96092 1.21071 2.46963 1 3.00006 1H30.0001C30.5305 1 31.0392 1.21071 31.4143 1.58579C31.7894 1.96086 32.0001 2.46957 32.0001 3V39C32.0001 39.5304 31.7894 40.0391 31.4143 40.4142C31.0392 40.7893 30.5305 41 30.0001 41H21.0001" stroke="#FF8A00" stroke-width="2" stroke-linecap="round" stroke-linejoin="round"/>
<path d="M16.9101 28.06L13.1301 26.5" stroke="#FF8A00" stroke-width="2" stroke-linecap="round" stroke-linejoin="round"/>
<path d="M39.0001 25.24L43.2401 21L39.0001 16.76" stroke="#FF8A00" stroke-width="2" stroke-linecap="round" stroke-linejoin="round"/>
<path d="M43.0001 21H32.0001" stroke="#FF8A00" stroke-width="2" stroke-linecap="round" stroke-linejoin="round"/>
</svg>
