<svg width="32" height="36" viewBox="0 0 32 36" fill="none" xmlns="http://www.w3.org/2000/svg">
<path d="M16 0.03125C7.00859 0.03125 1.15625 5.16953 1.15625 14.0938V18C1.15625 18 0.375 19.4477 0.375 21.125C0.375 23.3711 2.20156 25.1727 3.5 25.8125C4.98125 31.9906 12.0938 35.9688 16 35.9688C19.9062 35.9688 27.0187 31.9906 28.5 25.8125C29.7984 25.1727 31.625 23.0949 31.625 20.8488C31.625 19.1715 30.8438 18 30.8438 18V14.0938C30.8438 3.55781 23.2952 2.96552 23.2952 2.96552C23.2952 2.96552 21.0633 0.03125 16 0.03125ZM16 3.15625C20.7352 3.15625 21.481 6.0188 21.481 6.0188C21.481 6.0188 27.7188 6.45781 27.7188 14.0938V17.2188H27.4426C26.7246 14.0648 24.7404 10.1418 21.0537 9.0965C21.0537 9.0965 17.4666 14.5055 6.35797 14.0938L4.79547 17.2188H4.28125V14.0938C4.28125 7.14297 8.55234 3.15625 16 3.15625ZM21.7892 12.9738C22.9736 14.0347 24.9622 17.8117 24.9966 20.3438H28.4512C28.4797 20.5009 28.5 20.666 28.5 20.8488C28.5 22.5723 25.8038 23.658 25.8038 23.658C25.8038 28.8322 18.6695 32.8438 16 32.8438C13.3305 32.8438 6.19623 28.5236 6.19623 23.658C6.19623 23.658 3.5 22.8812 3.5 21.125C3.5 20.8366 3.53459 20.5814 3.58087 20.3438H6.72876L8.29431 17.2111C14.9435 17.108 18.8181 15.9081 21.7892 12.9738Z" fill="white"/>
</svg>
