<svg width="65" height="86" viewBox="0 0 65 86" fill="none" xmlns="http://www.w3.org/2000/svg">
<path d="M22.3438 33C19.3507 33 16.6086 34.5095 15.1888 36.9395C14.6363 37.8845 13.9841 39.4262 13.6296 40.4492C13.3046 41.3252 8.33938 52.2651 5.28641 58.9531L5.30029 58.959C4.51399 60.4941 4.0625 62.198 4.0625 64C4.0625 70.617 9.98562 76 17.2656 76C24.5456 76 30.4688 70.617 30.4688 64V60.3262C31.0145 60.159 31.7178 60 32.5 60C33.2849 60 33.9862 60.159 34.5312 60.3262V64C34.5312 70.617 40.4544 76 47.7344 76C55.0144 76 60.9375 70.617 60.9375 64C60.9375 62.198 60.486 60.4941 59.6997 58.959L59.7136 58.9531C56.6606 52.2641 51.6963 41.3269 51.3763 40.4629C51.0168 39.4279 50.3637 37.8864 49.8112 36.9414C48.3914 34.5104 45.6493 33 42.6562 33C38.2842 33 34.7168 36.2064 34.5471 40.2051C33.9256 40.0845 33.2393 40 32.5 40C31.7607 40 31.0744 40.0845 30.4529 40.2051C30.2832 36.2064 26.7158 33 22.3438 33ZM22.3438 37C24.5842 37 26.4062 38.57 26.4062 40.5V55.3613C24.0315 53.285 20.8131 52 17.2656 52C15.5946 52 14.0015 52.2955 12.5287 52.8125C14.8473 47.7069 17.2409 42.4114 17.468 41.7578C17.8021 40.7948 18.3501 39.5555 18.7117 38.9355C19.4084 37.7425 20.8 37 22.3438 37ZM42.6562 37C44.2 37 45.5916 37.7415 46.2883 38.9355C46.6509 39.5555 47.1969 40.7958 47.532 41.7598C47.7591 42.4126 50.1513 47.7075 52.4693 52.8125C50.997 52.2959 49.4047 52 47.7344 52C44.1869 52 40.9685 53.285 38.5938 55.3613V40.5C38.5938 38.57 40.4158 37 42.6562 37ZM32.5 44C33.2849 44 33.9862 44.159 34.5312 44.3262V48.2012C33.914 48.0823 33.2327 48 32.5 48C31.7673 48 31.0859 48.0823 30.4688 48.2012V44.3262C31.0145 44.159 31.7178 44 32.5 44ZM32.5 52C33.2849 52 33.9862 52.159 34.5312 52.3262V56.2012C33.914 56.0823 33.2327 56 32.5 56C31.7673 56 31.0859 56.0823 30.4688 56.2012V52.3262C31.0145 52.159 31.7178 52 32.5 52ZM17.2656 56C22.3062 56 26.4062 59.589 26.4062 64C26.4062 68.411 22.3062 72 17.2656 72C12.2251 72 8.125 68.411 8.125 64C8.125 59.589 12.2251 56 17.2656 56ZM47.7344 56C52.7749 56 56.875 59.589 56.875 64C56.875 68.411 52.7749 72 47.7344 72C42.6938 72 38.5938 68.411 38.5938 64C38.5938 59.589 42.6938 56 47.7344 56Z" fill="#FF8A00"/>
<path d="M32.5 9C20.8112 9 13.2031 15.577 13.2031 27V32C13.2031 32 12.1875 33.853 12.1875 36C12.1875 38.875 14.562 41.181 16.25 42C18.1756 49.908 27.4219 55 32.5 55C37.5781 55 46.8244 49.908 48.75 42C50.438 41.181 52.8125 38.5215 52.8125 35.6465C52.8125 33.4995 51.7969 32 51.7969 32V27C51.7969 13.514 41.9838 12.7559 41.9838 12.7559C41.9838 12.7559 39.0823 9 32.5 9ZM32.5 13C38.6557 13 39.6252 16.6641 39.6252 16.6641C39.6252 16.6641 47.7344 17.226 47.7344 27V31H47.3753C46.442 26.963 43.8626 21.9415 39.0698 20.6035C39.0698 20.6035 34.4065 27.527 19.9654 27L17.9341 31H17.2656V27C17.2656 18.103 22.818 13 32.5 13ZM40.0259 25.5664C41.5656 26.9244 44.1509 31.759 44.1956 35H48.6865C48.7237 35.2011 48.75 35.4125 48.75 35.6465C48.75 37.8525 45.2449 39.2422 45.2449 39.2422C45.2449 45.8652 35.9704 51 32.5 51C29.0296 51 19.7551 45.4702 19.7551 39.2422C19.7551 39.2422 16.25 38.248 16.25 36C16.25 35.6308 16.295 35.3042 16.3551 35H20.4474L22.4826 30.9902C31.1266 30.8582 36.1635 29.3224 40.0259 25.5664Z" fill="#FF8A00"/>
<path d="M28.4375 44.5C28.4375 49.1944 29.9609 59.5 24.375 55.5C20.7291 55.5 12.1875 56.6944 12.1875 52C12.1875 47.3056 18.19 36 21.8359 36C25.4819 36 28.4375 39.8056 28.4375 44.5Z" fill="#FF8A00"/>
<path d="M51.7969 45.5C51.7969 50.097 57.7638 59.417 50.7813 55.5C46.2239 55.5 35.5469 57.097 35.5469 52.5C35.5469 47.903 35.5469 35 43.6719 35.5C48.2293 35.5 51.7969 40.903 51.7969 45.5Z" fill="#FF8A00"/>
</svg>
