<svg width="46" height="44" viewBox="0 0 46 44" fill="none" xmlns="http://www.w3.org/2000/svg">
<path d="M20 0C16.686 0 14 2.686 14 6H6C2.686 6 0 8.686 0 12V38C0 41.314 2.686 44 6 44H40C43.314 44 46 41.314 46 38V12C46 8.686 43.314 6 40 6H32C32 2.686 29.314 0 26 0H20ZM20 4H26C27.104 4 28 4.895 28 6H18C18 4.895 18.896 4 20 4ZM6 10H40C41.105 10 42 10.895 42 12V20.3281C38.8603 20.8654 31.2769 22 23 22C14.7257 22 7.14208 20.8661 4 20.3281V12C4 10.895 4.895 10 6 10ZM4 24.3848C6.85152 24.8557 11.9942 25.5743 18 25.8652V26C18 27.105 18.895 28 20 28H25C26.105 28 27 27.105 27 26V25.918C33.438 25.6656 38.9889 24.8818 42 24.3848V38C42 39.105 41.105 40 40 40H6C4.895 40 4 39.105 4 38V24.3848Z" fill="#FF8A00"/>
</svg>
